<?xml version="1.0" encoding="UTF-8" standalone="no"?>
<!-- Created with Inkscape (http://www.inkscape.org/) -->

<svg
   xmlns:dc="http://purl.org/dc/elements/1.1/"
   xmlns:cc="http://creativecommons.org/ns#"
   xmlns:rdf="http://www.w3.org/1999/02/22-rdf-syntax-ns#"
   xmlns:svg="http://www.w3.org/2000/svg"
   xmlns="http://www.w3.org/2000/svg"
   xmlns:sodipodi="http://sodipodi.sourceforge.net/DTD/sodipodi-0.dtd"
   xmlns:inkscape="http://www.inkscape.org/namespaces/inkscape"
   version="1.1"
   id="svg134"
   xml:space="preserve"
   width="1503.6766"
   height="741.69415"
   viewBox="0 0 1503.6767 741.69415"
   sodipodi:docname="silicon_hills.svg"
   inkscape:version="0.92.3 (2405546, 2018-03-11)"><metadata
     id="metadata140"><rdf:RDF><cc:Work
         rdf:about=""><dc:format>image/svg+xml</dc:format><dc:type
           rdf:resource="http://purl.org/dc/dcmitype/StillImage" /><dc:title></dc:title></cc:Work></rdf:RDF></metadata><defs
     id="defs138" /><sodipodi:namedview
     pagecolor="#ffffff"
     bordercolor="#666666"
     borderopacity="1"
     objecttolerance="10"
     gridtolerance="10"
     guidetolerance="10"
     inkscape:pageopacity="0"
     inkscape:pageshadow="2"
     inkscape:window-width="1866"
     inkscape:window-height="977"
     id="namedview136"
     showgrid="false"
     inkscape:zoom="0.66145151"
     inkscape:cx="859.16042"
     inkscape:cy="389.05216"
     inkscape:window-x="24"
     inkscape:window-y="48"
     inkscape:window-maximized="0"
     inkscape:current-layer="g142" /><g
     id="g142"
     inkscape:groupmode="layer"
     inkscape:label="Ai file cmyk"
     transform="matrix(1.3333333,0,0,-1.3333333,-36.906399,1161.4684)"><g
       id="g1023"><g
         id="g1307"
         transform="translate(-359.1917,107.59335)"><g
           id="g1003"><path
             d="m 974.1165,380.279 -23.367,23.367 -33.08,33.08 -5.714,5.714 -24.713,24.713 -22.069,22.07 -11.011,11.01 -23.366,23.367 -19.272,19.271 c -15.834,-4.321 -33.47,-0.3 -45.907,12.137 -18.461,18.46 -18.461,48.39 0,66.85 18.46,18.46 48.39,18.461 66.85,0 12.437,-12.437 16.458,-30.072 12.137,-45.907 l 19.271,-19.271 23.367,-23.367 78.769,78.768 8.105,8.106 -23.366,23.367 -33.08,33.08 -30.427,30.427 -56.447,56.447 -86.874,-86.874 -33.08,-33.08 -31.473,-31.473 -55.401,-55.401 56.446,-56.447 11.011,-11.01 19.417,-19.417 4.893,-4.894 c 15.835,4.321 33.471,0.3 45.908,-12.137 18.46,-18.46 18.46,-48.39 0,-66.85 -18.461,-18.461 -48.391,-18.461 -66.851,0 -12.437,12.437 -16.457,30.073 -12.136,45.907 l -4.894,4.894 -5.715,5.714 -24.712,24.713 -22.07,22.07 -34.377,34.377 -34.377,-34.377 -46.782,-46.783 -5.715,-5.714 -33.08,-33.08 -84.063,-84.064 h 112.893 55.234 5.62 60.54 5.62 46.734 66.16 55.233 5.621 60.539 5.621 46.733 66.16 55.234 l -27.617,27.617 z"
             style="fill:#0293c4;fill-opacity:1;fill-rule:nonzero;stroke:none"
             id="path196"
             inkscape:connector-curvature="0" /><g
             transform="translate(1487.012,347.1993)"
             id="g198"
             style="fill:#485361;fill-opacity:1"><path
               inkscape:connector-curvature="0"
               id="path200"
               style="fill:#485361;fill-opacity:1;fill-rule:nonzero;stroke:none"
               d="m 0,0 -33.08,33.08 -23.367,23.367 -33.08,33.08 -5.714,5.714 -24.713,24.713 -22.07,22.069 -11.01,11.011 -23.366,23.366 -33.081,33.08 -30.427,30.427 -24.973,24.975 -8.107,8.106 -23.367,23.366 -33.079,33.08 -30.427,30.427 -86.875,-86.874 8.106,-8.105 22.322,-22.322 15.741,-15.741 c 15.834,4.321 33.47,0.301 45.907,-12.137 18.46,-18.46 18.461,-48.39 0,-66.85 -18.46,-18.461 -48.39,-18.46 -66.85,0 -12.437,12.437 -16.458,30.072 -12.137,45.907 l -15.741,15.741 -30.427,30.427 -86.874,-86.873 11.01,-11.011 19.417,-19.417 27.365,-27.365 5.715,-5.714 23.367,-23.367 33.08,-33.08 30.427,-30.427 30.27,-30.27 h 5.62 46.734 66.159 55.234 L -239.908,0 l -33.079,33.08 -3.709,3.708 c -15.835,-4.321 -33.47,-0.301 -45.907,12.136 -18.46,18.461 -18.46,48.391 0,66.851 18.461,18.46 48.39,18.46 66.85,0 12.438,-12.437 16.459,-30.073 12.137,-45.908 l 3.708,-3.708 33.08,-33.079 30.427,-30.427 30.27,-30.27 h 5.621 46.733 66.16 55.234 z" /></g></g></g><g
         id="text120"
         style="font-style:normal;font-variant:normal;font-weight:normal;font-stretch:normal;font-size:30px;line-height:1.25;font-family:'Hurmit Nerd Font Mono';-inkscape-font-specification:'Hurmit Nerd Font Mono';letter-spacing:0px;word-spacing:0px;fill:#000000;fill-opacity:1;stroke:none;stroke-width:0.75"
         transform="scale(1,-1)"
         aria-label="Silicon Hills"><path
           id="path963"
           style="fill:#485361;fill-opacity:1"
           d="m 60.308598,-356.95572 h 0.875 5 c 11.125,0 11.75,0.75 11.75,14 0,16.125 -4.375,16.875 -14.5,16.875 h -3.125 -0.25 -1 c -11.875,0 -16.25,-0.125 -16.25,-9.375 v -1.875 h -15 v 1.875 c 0,20.25 13.25,20.625 32.5,20.625 19.625,0 32.625,-0.75 32.625,-29.875 0,-26.5 -13,-27.25 -32.125,-27.25 h -0.5 -5.75 c -11.25,0 -11.75,-0.875 -11.75,-14.125 0,-10.875 4.125,-11.25 15.25,-11.25 h 2.25 5 c 9.375,0 12.625,0.125 12.625,9.375 v 1.875 h 15 v -1.875 c 0,-16.625 -13,-20.625 -32.625,-20.625 -19.375,0 -32.5,0.5 -32.5,24.5 0,26.5 13,27.125 32.5,27.125 z" /><path
           id="path965"
           style="fill:#485361;fill-opacity:1"
           d="m 121.8125,-366.08072 h 17.625 l 1,40 h -24.25 v 11.25 h 65.125 v -11.25 h -24.125 l -2.75,-51.25 h -32.625 z m 6.375,-29.375 c 0,6.75 6.375,13.125 13.125,13.125 6.75,0 13.125,-6.375 13.125,-13.125 0,-6.75 -6.375,-13.125 -13.125,-13.125 -6.75,0 -13.125,6.375 -13.125,13.125 z" /><path
           id="path967"
           style="fill:#485361;fill-opacity:1"
           d="m 216.56641,-393.58072 h 12.25 v 67.5 h -24.25 v 11.25 h 65.125 v -11.25 h -24.125 v -82.5 h -29 z" /><path
           id="path969"
           style="fill:#485361;fill-opacity:1"
           d="m 298.57032,-366.08072 h 17.625 l 1,40 h -24.25 v 11.25 h 65.125 v -11.25 h -24.125 l -2.75,-51.25 h -32.625 z m 6.375,-29.375 c 0,6.75 6.375,13.125 13.125,13.125 6.75,0 13.125,-6.375 13.125,-13.125 0,-6.75 -6.375,-13.125 -13.125,-13.125 -6.75,0 -13.125,6.375 -13.125,13.125 z" /><path
           id="path971"
           style="fill:#485361;fill-opacity:1"
           d="m 446.44922,-334.83072 h -15 v 1.875 c 0,6.5 -10.125,6.875 -17.375,6.875 h -0.25 c -11.25,0 -17.5,-8.375 -17.5,-20 0,-11.625 6.25,-20 17.5,-20 h 0.25 c 7.25,0 17.375,0.375 17.375,6.875 v 1.875 h 15 v -1.875 c 0,-18.125 -20.375,-18.125 -32.625,-18.125 -20.375,0 -32.5,11.625 -32.5,31.25 0,19.625 12.125,31.25 32.5,31.25 12.25,0 32.625,0 32.625,-18.125 z" /><path
           id="path973"
           style="fill:#485361;fill-opacity:1"
           d="m 502.20313,-377.33072 c -19.625,0 -32.5,0.875 -32.5,31.25 0,30.5 12.875,31.25 32.5,31.25 19.625,0 32.625,-0.75 32.625,-31.25 0,-30.5 -13,-31.25 -32.625,-31.25 z m 17.625,31.25 c 0,19.125 -4.5,20 -14.625,20 h -3 -3.375 c -9.875,0 -14.125,-0.875 -14.125,-20 0,-19.125 4.25,-20 14.125,-20 h 3.375 3 c 10.125,0 14.625,0.875 14.625,20 z" /><path
           id="path975"
           style="fill:#485361;fill-opacity:1"
           d="m 573.08204,-350.45572 v -6 c 0,-8.875 0.75,-9.625 10.25,-9.625 h 7.25 c 17.25,0 17.625,15 17.625,15.625 v 35.625 h 15 v -33.625 c 0,0 -0.125,-28.875 -32.625,-28.875 -31,0 -32.5,1.375 -32.5,28.875 v 33.625 h 15 z" /><path
           id="path977"
           style="fill:#0293c4;fill-opacity:1"
           d="m 734.83985,-314.83072 h 15 v -39.375 h 35.125 v 39.375 h 15 v -93.75 h -15 v 39.375 h -35.125 v -39.375 h -15 z" /><path
           id="path979"
           style="fill:#0293c4;fill-opacity:1"
           d="m 828.84375,-366.08072 h 17.625 l 1,40 h -24.25 v 11.25 h 65.125 v -11.25 h -24.125 l -2.75,-51.25 h -32.625 z m 6.375,-29.375 c 0,6.75 6.375,13.125 13.125,13.125 6.75,0 13.125,-6.375 13.125,-13.125 0,-6.75 -6.375,-13.125 -13.125,-13.125 -6.75,0 -13.125,6.375 -13.125,13.125 z" /><path
           id="path981"
           style="fill:#0293c4;fill-opacity:1"
           d="m 923.59766,-393.58072 h 12.25 v 67.5 h -24.25 v 11.25 h 65.125 v -11.25 h -24.125 v -82.5 h -29 z" /><path
           id="path983"
           style="fill:#0293c4;fill-opacity:1"
           d="m 1011.9766,-393.58072 h 12.25 v 67.5 h -24.25003 v 11.25 h 65.12503 v -11.25 h -24.125 v -82.5 h -29 z" /><path
           id="path985"
           style="fill:#0293c4;fill-opacity:1"
           d="m 1138.4805,-332.45572 c 0,6.125 -4.25,6.375 -17.625,6.375 -13.375,0 -17.5,-0.25 -17.5,-5.375 v -1.875 h -15 v 1.875 c 0,16.5 13.375,16.625 32.5,16.625 19.125,0 32.625,-0.125 32.625,-19.375 0,-19.125 -17.875,-19.375 -32.125,-19.375 h -1.75 c -12.5,0 -16.25,-0.25 -16.25,-6.125 0,-6.125 4.125,-6.375 17.5,-6.375 13.375,0 17.625,0.25 17.625,5.375 v 1.875 h 15 v -1.875 c 0,-16.5 -13.5,-16.625 -32.625,-16.625 -19.125,0 -32.5,0.125 -32.5,19.375 0,19.125 17.625,19.375 31.875,19.375 h 1.875 c 12.5,0 16.375,0.25 16.375,6.125 z" /></g></g></g></svg>